<?xml version="1.0" standalone="no"?>
<svg xmlns:xlink="http://www.w3.org/1999/xlink" id="wave" style="transform:rotate(0deg); transition: 0.3s" viewBox="0 0 1440 490" version="1.1" xmlns="http://www.w3.org/2000/svg"><defs><linearGradient id="sw-gradient-0" x1="0" x2="0" y1="1" y2="0"><stop stop-color="rgba(155, 162, 247, 1)" offset="0%"/><stop stop-color="rgba(155, 162, 247, 1)" offset="100%"/></linearGradient></defs><path style="transform:translate(0, 0px); opacity:1" fill="url(#sw-gradient-0)" d="M0,147L60,163.3C120,180,240,212,360,261.3C480,310,600,376,720,359.3C840,343,960,245,1080,179.7C1200,114,1320,82,1440,130.7C1560,180,1680,310,1800,367.5C1920,425,2040,408,2160,343C2280,278,2400,163,2520,106.2C2640,49,2760,49,2880,65.3C3000,82,3120,114,3240,179.7C3360,245,3480,343,3600,359.3C3720,376,3840,310,3960,294C4080,278,4200,310,4320,269.5C4440,229,4560,114,4680,114.3C4800,114,4920,229,5040,294C5160,359,5280,376,5400,375.7C5520,376,5640,359,5760,334.8C5880,310,6000,278,6120,269.5C6240,261,6360,278,6480,277.7C6600,278,6720,261,6840,253.2C6960,245,7080,245,7200,261.3C7320,278,7440,310,7560,269.5C7680,229,7800,114,7920,81.7C8040,49,8160,98,8280,163.3C8400,229,8520,310,8580,351.2L8640,392L8640,490L8580,490C8520,490,8400,490,8280,490C8160,490,8040,490,7920,490C7800,490,7680,490,7560,490C7440,490,7320,490,7200,490C7080,490,6960,490,6840,490C6720,490,6600,490,6480,490C6360,490,6240,490,6120,490C6000,490,5880,490,5760,490C5640,490,5520,490,5400,490C5280,490,5160,490,5040,490C4920,490,4800,490,4680,490C4560,490,4440,490,4320,490C4200,490,4080,490,3960,490C3840,490,3720,490,3600,490C3480,490,3360,490,3240,490C3120,490,3000,490,2880,490C2760,490,2640,490,2520,490C2400,490,2280,490,2160,490C2040,490,1920,490,1800,490C1680,490,1560,490,1440,490C1320,490,1200,490,1080,490C960,490,840,490,720,490C600,490,480,490,360,490C240,490,120,490,60,490L0,490Z"/></svg>